<svg width="32" height="32" viewBox="0 0 32 32" fill="none" xmlns="http://www.w3.org/2000/svg">
<g clip-path="url(#clip0_83_5)">
<path d="M17.1035 2.30376C16.3449 1.67829 15.3248 1.67829 14.567 2.30376C13.867 2.88133 12.8416 3.77496 11.4023 5.13104C9.42608 5.1896 8.068 5.28342 7.16505 5.36992C6.18625 5.46374 5.46496 6.18504 5.37114 7.16384C5.28463 8.06678 5.19148 9.42487 5.13159 11.4011C3.77551 12.841 2.88188 13.8671 2.30431 14.5671C1.67884 15.3256 1.67884 16.3457 2.30431 17.1036C2.88188 17.8036 3.77617 18.8296 5.13226 20.2695C5.19081 22.2451 5.28397 23.6025 5.37114 24.5055C5.46429 25.4836 6.18625 26.2056 7.16505 26.2994C8.068 26.3859 9.42475 26.479 11.401 26.5383C12.8409 27.8944 13.8663 28.7886 14.5663 29.3662C15.3248 29.9917 16.3456 29.9917 17.1041 29.3662C17.8041 28.7886 18.8302 27.8944 20.2694 26.5383C22.2457 26.479 23.6031 26.3859 24.5067 26.2987C25.4848 26.2056 26.2061 25.4843 26.3006 24.5055C26.3871 23.6025 26.4803 22.2451 26.5395 20.2682C27.8949 18.829 28.7885 17.8036 29.3661 17.1036C29.9916 16.345 29.9916 15.325 29.3661 14.5671C28.7892 13.8671 27.8956 12.841 26.5395 11.4018C26.4803 9.42486 26.3871 8.06679 26.2999 7.16317C26.2068 6.18504 25.4848 5.46374 24.5067 5.36992C23.6037 5.28342 22.2457 5.19026 20.2681 5.13104C18.8288 3.77496 17.8035 2.88133 17.1035 2.30376Z" fill="#C7D2FE" stroke="#4F46E5" stroke-opacity="0.5" stroke-width="4.0092" stroke-linecap="round" stroke-linejoin="round"/>
</g>
<defs>
<clipPath id="clip0_83_5">
<rect width="32" height="32" fill="white"/>
</clipPath>
</defs>
</svg>
