<svg width="32" height="32" viewBox="0 0 32 32" fill="none" xmlns="http://www.w3.org/2000/svg">
<g clip-path="url(#clip0_91_9)">
<path d="M17.0129 3.27029C16.3085 2.68949 15.3613 2.68949 14.6575 3.27029C14.0075 3.8066 13.0554 4.6364 11.719 5.89562C9.88387 5.94999 8.6228 6.03711 7.78435 6.11743C6.87546 6.20455 6.20569 6.87433 6.11857 7.78321C6.03825 8.62166 5.95174 9.88274 5.89614 11.7178C4.63692 13.0549 3.80712 14.0076 3.2708 14.6576C2.69001 15.362 2.69001 16.3092 3.2708 17.013C3.80712 17.663 4.63753 18.6157 5.89675 19.9528C5.95113 21.7873 6.03763 23.0477 6.11857 23.8862C6.20507 24.7944 6.87546 25.4648 7.78435 25.5519C8.6228 25.6323 9.88264 25.7188 11.7177 25.7738C13.0548 27.033 14.0069 27.8634 14.6569 28.3997C15.3613 28.9805 16.3091 28.9805 17.0135 28.3997C17.6635 27.8634 18.6162 27.033 19.9527 25.7738C21.7878 25.7188 23.0482 25.6323 23.8873 25.5513C24.7956 25.4648 25.4653 24.795 25.5531 23.8862C25.6334 23.0477 25.7199 21.7873 25.7749 19.9516C27.0335 18.6151 27.8633 17.663 28.3996 17.013C28.9804 16.3086 28.9804 15.3614 28.3996 14.6576C27.8639 14.0076 27.0341 13.0549 25.7749 11.7184C25.7199 9.88274 25.6334 8.62166 25.5525 7.7826C25.466 6.87433 24.7956 6.20455 23.8873 6.11743C23.0488 6.03711 21.7878 5.95061 19.9515 5.89562C18.615 4.6364 17.6629 3.8066 17.0129 3.27029Z" fill="#C7D2FE" stroke="#4F46E5" stroke-opacity="0.5" stroke-width="4.44293" stroke-linecap="round" stroke-linejoin="round"/>
</g>
<defs>
<clipPath id="clip0_91_9">
<rect width="32" height="32" fill="white"/>
</clipPath>
</defs>
</svg>
