<svg width="2424" height="800" viewBox="0 0 2424 800" fill="none" xmlns="http://www.w3.org/2000/svg">
<path d="M425.324 81.7573C407.715 67.2373 384.035 67.2373 366.441 81.7573C350.191 95.1651 326.388 115.91 292.977 147.391C247.1 148.75 215.573 150.928 194.612 152.936C171.889 155.114 155.145 171.858 152.967 194.58C150.959 215.542 148.796 247.069 147.406 292.945C115.926 326.372 95.1807 350.191 81.7729 366.441C67.2529 384.05 67.2529 407.73 81.7729 425.324C95.1807 441.574 115.941 465.393 147.422 498.82C148.781 544.681 150.944 576.193 152.967 597.154C155.13 619.861 171.889 636.621 194.612 638.799C215.573 640.807 247.069 642.969 292.946 644.344C326.372 675.824 350.176 696.585 366.426 709.993C384.035 724.513 407.731 724.513 425.34 709.993C441.59 696.585 465.409 675.824 498.82 644.344C544.697 642.969 576.209 640.807 597.185 638.783C619.892 636.621 636.636 619.876 638.83 597.154C640.838 576.193 643 544.681 644.375 498.789C675.84 465.378 696.585 441.574 709.993 425.324C724.513 407.715 724.513 384.035 709.993 366.441C696.601 350.191 675.856 326.372 644.375 292.961C643 247.069 640.838 215.542 638.814 194.565C636.652 171.858 619.892 155.114 597.185 152.936C576.224 150.928 544.697 148.765 498.789 147.391C465.378 115.91 441.574 95.1651 425.324 81.7573Z" fill="#C7D2FE" stroke="#4F46E5" stroke-opacity="0.5" stroke-width="111.073" stroke-linecap="round" stroke-linejoin="round"/>
<path d="M1113.69 71.4844V653.76H1313.2V750H1011.3V71.4844H1113.69ZM1490.3 321.973V750H1391.43V321.973H1490.3ZM1376.48 143.994C1376.48 126.709 1382.78 111.768 1395.38 99.1699C1407.98 86.5723 1423.07 80.2734 1440.64 80.2734C1458.52 80.2734 1473.75 86.5723 1486.35 99.1699C1498.95 111.475 1505.24 126.562 1505.24 144.434C1505.24 162.305 1498.95 177.539 1486.35 190.137C1474.04 202.734 1458.96 209.033 1441.08 209.033C1423.21 209.033 1407.98 202.734 1395.38 190.137C1382.78 177.539 1376.48 162.158 1376.48 143.994ZM1615.55 321.973H1714.42V360.205C1732.59 341.162 1748.7 328.125 1762.76 321.094C1777.12 313.77 1794.11 310.107 1813.74 310.107C1839.81 310.107 1867.06 318.604 1895.48 335.596L1850.21 426.123C1831.46 412.646 1813.15 405.908 1795.28 405.908C1741.38 405.908 1714.42 446.631 1714.42 528.076V750H1615.55V321.973ZM2261.54 321.973H2360.86V750H2261.54V705.176C2220.82 743.262 2177.02 762.305 2130.15 762.305C2070.97 762.305 2022.04 740.918 1983.37 698.145C1944.99 654.492 1925.8 600 1925.8 534.668C1925.8 470.508 1944.99 417.041 1983.37 374.268C2021.75 331.494 2069.79 310.107 2127.51 310.107C2177.31 310.107 2221.99 330.615 2261.54 371.631V321.973ZM2026.88 534.668C2026.88 575.684 2037.86 609.082 2059.83 634.863C2082.39 660.938 2110.81 673.975 2145.09 673.975C2181.71 673.975 2211.3 661.377 2233.86 636.182C2256.42 610.107 2267.7 577.002 2267.7 536.865C2267.7 496.729 2256.42 463.623 2233.86 437.549C2211.3 412.061 2182 399.316 2145.97 399.316C2111.98 399.316 2083.56 412.207 2060.71 437.988C2038.15 464.062 2026.88 496.289 2026.88 534.668Z" fill="white"/>
</svg>
