<svg width="800" height="800" viewBox="0 0 800 800" fill="none" xmlns="http://www.w3.org/2000/svg">
<g clip-path="url(#clip0_26_2)">
<path d="M427.589 57.5944C408.625 41.9575 383.124 41.9575 364.177 57.5944C346.677 72.0335 321.042 94.3743 285.061 128.276C235.655 129.74 201.703 132.086 179.129 134.248C154.659 136.594 136.627 154.626 134.281 179.096C132.119 201.67 129.79 235.622 128.293 285.028C94.3905 321.026 72.0498 346.677 57.6106 364.177C41.9737 383.141 41.9737 408.642 57.6106 427.59C72.0498 445.09 94.4072 470.741 128.309 506.739C129.773 556.128 132.102 590.063 134.281 612.637C136.61 637.091 154.659 655.14 179.129 657.485C201.703 659.648 235.622 661.977 285.027 663.457C321.026 697.359 346.66 719.717 364.16 734.156C383.124 749.793 408.642 749.793 427.606 734.156C445.106 719.717 470.757 697.359 506.738 663.457C556.144 661.977 590.08 659.648 612.67 657.468C637.123 655.14 655.156 637.107 657.518 612.637C659.68 590.063 662.009 556.128 663.49 506.706C697.375 470.724 719.716 445.09 734.155 427.59C749.792 408.626 749.792 383.124 734.155 364.177C719.733 346.677 697.392 321.026 663.49 285.044C662.009 235.622 659.68 201.67 657.501 179.08C655.172 154.626 637.123 136.594 612.67 134.248C590.096 132.086 556.144 129.757 506.705 128.276C470.724 94.3743 445.089 72.0335 427.589 57.5944Z" fill="#C7D2FE" stroke="#4F46E5" stroke-opacity="0.5" stroke-width="100.23" stroke-linecap="round" stroke-linejoin="round"/>
</g>
<defs>
<clipPath id="clip0_26_2">
<rect width="800" height="800" fill="white"/>
</clipPath>
</defs>
</svg>
