<svg width="2424" height="800" viewBox="0 0 2424 800" fill="none" xmlns="http://www.w3.org/2000/svg">
<path d="M429.781 82.25C411.969 67.5625 388.016 67.5625 370.219 82.25C353.781 95.8125 329.703 116.797 295.906 148.641C249.5 150.016 217.609 152.219 196.406 154.25C173.422 156.453 156.484 173.391 154.281 196.375C152.25 217.578 150.062 249.469 148.656 295.875C116.812 329.688 95.8281 353.781 82.2656 370.219C67.5781 388.031 67.5781 411.984 82.2656 429.781C95.8281 446.219 116.828 470.312 148.672 504.125C150.047 550.516 152.234 582.391 154.281 603.594C156.469 626.563 173.422 643.516 196.406 645.719C217.609 647.75 249.469 649.938 295.875 651.328C329.688 683.172 353.766 704.172 370.203 717.734C388.016 732.422 411.984 732.422 429.797 717.734C446.234 704.172 470.328 683.172 504.125 651.328C550.531 649.938 582.406 647.75 603.625 645.703C626.594 643.516 643.531 626.578 645.75 603.594C647.781 582.391 649.969 550.516 651.359 504.094C683.187 470.297 704.172 446.219 717.734 429.781C732.422 411.969 732.422 388.016 717.734 370.219C704.188 353.781 683.203 329.688 651.359 295.891C649.969 249.469 647.781 217.578 645.734 196.359C643.547 173.391 626.594 156.453 603.625 154.25C582.422 152.219 550.531 150.031 504.094 148.641C470.297 116.797 446.219 95.8125 429.781 82.25Z" fill="#C7D2FE" stroke="#4F46E5" stroke-opacity="0.5" stroke-width="100" stroke-linecap="round" stroke-linejoin="round"/>
<path d="M1113.69 71.4844V653.76H1313.2V750H1011.3V71.4844H1113.69ZM1490.3 321.973V750H1391.43V321.973H1490.3ZM1376.48 143.994C1376.48 126.709 1382.78 111.768 1395.38 99.1699C1407.98 86.5723 1423.07 80.2734 1440.64 80.2734C1458.52 80.2734 1473.75 86.5723 1486.35 99.1699C1498.95 111.475 1505.24 126.562 1505.24 144.434C1505.24 162.305 1498.95 177.539 1486.35 190.137C1474.04 202.734 1458.96 209.033 1441.08 209.033C1423.21 209.033 1407.98 202.734 1395.38 190.137C1382.78 177.539 1376.48 162.158 1376.48 143.994ZM1615.55 321.973H1714.42V360.205C1732.59 341.162 1748.7 328.125 1762.76 321.094C1777.12 313.77 1794.11 310.107 1813.74 310.107C1839.81 310.107 1867.06 318.604 1895.48 335.596L1850.21 426.123C1831.46 412.646 1813.15 405.908 1795.28 405.908C1741.38 405.908 1714.42 446.631 1714.42 528.076V750H1615.55V321.973ZM2261.54 321.973H2360.86V750H2261.54V705.176C2220.82 743.262 2177.02 762.305 2130.15 762.305C2070.97 762.305 2022.04 740.918 1983.37 698.145C1944.99 654.492 1925.8 600 1925.8 534.668C1925.8 470.508 1944.99 417.041 1983.37 374.268C2021.75 331.494 2069.79 310.107 2127.51 310.107C2177.31 310.107 2221.99 330.615 2261.54 371.631V321.973ZM2026.88 534.668C2026.88 575.684 2037.86 609.082 2059.83 634.863C2082.39 660.938 2110.81 673.975 2145.09 673.975C2181.71 673.975 2211.3 661.377 2233.86 636.182C2256.42 610.107 2267.7 577.002 2267.7 536.865C2267.7 496.729 2256.42 463.623 2233.86 437.549C2211.3 412.061 2182 399.316 2145.97 399.316C2111.98 399.316 2083.56 412.207 2060.71 437.988C2038.15 464.062 2026.88 496.289 2026.88 534.668Z" fill="white"/>
</svg>
